<svg xmlns="http://www.w3.org/2000/svg"  viewBox="0 0 24 24" width="48px" height="48px"><path fill="#303C42" d="M12,6C5.2709961,6,0,8.6357422,0,12s5.2709961,6,12,6s12-2.6357422,12-6S18.7290039,6,12,6z"/><path fill="#82B1FF" d="M12,17c-2.875061,0-5.5282593-0.5357056-7.512146-1.3909302L4.890625,14h1.7539063 c1.3222656,0,2.4697266-0.8959961,2.7910156-2.1791992L9.5229492,11.46875 c0.1499023-0.5976563,0.0180664-1.2192383-0.3608398-1.7045898C8.7827148,9.2783203,8.2124023,9,7.5961914,9H5.5 C5.2705078,9,5.0708008,9.15625,5.0151367,9.3789063L3.567627,15.1689453C1.9726563,14.2992554,1,13.1904297,1,12 c0-2.7104492,5.0375977-5,11-5s11,2.2895508,11,5S17.9624023,17,12,17z"/><path fill="#FFF" d="M1.5,12.5c0-2.7104492,5.0375977-5,11-5c4.175415,0,7.8899536,1.1246338,9.7458496,2.7285156 C20.6331177,8.3630371,16.5968018,7,12,7C6.0375977,7,1,9.2895508,1,12c0,0.7979126,0.4448853,1.5570679,1.2133179,2.2341919 C1.7549438,13.69104,1.5,13.1063232,1.5,12.5z" opacity=".2"/><path fill="#82B1FF" d="M5.140625,13l0.75-3h1.7055664c0.3056641,0,0.5893555,0.1381836,0.7773438,0.3793945 c0.1884766,0.2412109,0.2539063,0.5498047,0.1791992,0.847168L8.465332,11.5786133C8.2558594,12.4155273,7.5073242,13,6.6445313,13 H5.140625z"/><path fill="#82B1FF" d="M5.140625,13l0.75-3h1.7055664c0.3056641,0,0.5893555,0.1381836,0.7773438,0.3793945 c0.1884766,0.2412109,0.2539063,0.5498047,0.1791992,0.847168L8.465332,11.5786133C8.2558594,12.4155273,7.5073242,13,6.6445313,13 H5.140625z"/><path fill="#303C42" d="M19.0961914,9H17c-0.2294922,0-0.4291992,0.15625-0.4848633,0.3789063l-0.9975586,3.9887695 c-0.0019531,0.0073242-0.003418,0.0141602-0.0053711,0.0209961l-0.4970703,1.9902344 c-0.0673828,0.2675781,0.0957031,0.5390625,0.3637695,0.605957C15.4194336,15.9951172,15.4604492,16,15.5004883,16 c0.2241211,0,0.4277344-0.1513672,0.484375-0.3789063L16.390625,14h1.7539063c1.3222656,0,2.4697266-0.8959961,2.7910156-2.1791992 l0.0874023-0.3520508c0.1499023-0.5976563,0.0180664-1.2192383-0.3608398-1.7045898 C20.2827148,9.2783203,19.7124023,9,19.0961914,9z M20.0527344,11.2265625l-0.0874023,0.3520508 C19.7558594,12.4155273,19.0073242,13,18.1445313,13H16.640625l0.75-3h1.7055664 c0.3056641,0,0.5893555,0.1381836,0.7773438,0.3793945C20.0620117,10.6206055,20.1274414,10.9291992,20.0527344,11.2265625z"/><path fill="#303C42" d="M14.6953125,9.6103516C14.3793945,9.2226563,13.9116211,9,13.4111328,9h-1.585022l0.1655884-0.9106445 c0.0498047-0.2714844-0.1303711-0.5317383-0.4023438-0.5810547c-0.2700195-0.0498047-0.5322266,0.1303711-0.5810547,0.4023438 l-1,5.5c-0.0498047,0.2714844,0.1303711,0.5317383,0.4023438,0.5810547C10.440918,13.9975586,10.4707031,14,10.5004883,14 c0.2373047,0,0.4477539-0.1689453,0.4912109-0.4106445L11.6442871,10h1.7668457 c0.1982422,0,0.3833008,0.0878906,0.5083008,0.2416992s0.1738281,0.3530273,0.1333008,0.5473633l-0.5424805,2.609375 c-0.0561523,0.2700195,0.1176758,0.534668,0.3881836,0.5913086C13.9326172,13.996582,13.9667969,14,14.0004883,14 c0.2319336,0,0.4399414-0.1621094,0.4892578-0.3984375l0.5424805-2.609375 C15.1337891,10.5024414,15.0107422,9.9985352,14.6953125,9.6103516z"/><linearGradient id="Okmbe-qWl-_qzH3zQoqL1a" x1="1.866" x2="22.134" y1="7.274" y2="16.726" gradientUnits="userSpaceOnUse"><stop offset="0" stop-color="#fff" stop-opacity=".2"/><stop offset="1" stop-color="#fff" stop-opacity="0"/></linearGradient><path fill="url(#Okmbe-qWl-_qzH3zQoqL1a)" d="M12,6C5.2709961,6,0,8.6357422,0,12s5.2709961,6,12,6s12-2.6357422,12-6S18.7290039,6,12,6z"/></svg>