<svg xmlns="http://www.w3.org/2000/svg"  viewBox="0 0 50 50" width="48px" height="48px"><path d="M 25 48 C 12.621094 48 2.519531 38.355469 2 26.042969 C 1.980469 25.546875 2.324219 25.109375 2.8125 25.019531 C 3.300781 24.921875 3.78125 25.203125 3.945313 25.671875 C 6.316406 32.445313 12.769531 37 20 37 C 29.375 37 37 29.375 37 20 C 37 12.769531 32.445313 6.316406 25.671875 3.945313 C 25.203125 3.78125 24.925781 3.296875 25.019531 2.8125 C 25.109375 2.324219 25.554688 1.980469 26.042969 2 C 38.355469 2.519531 48 12.621094 48 25 C 48 37.683594 37.683594 48 25 48 Z"/></svg>