<svg xmlns="http://www.w3.org/2000/svg" xmlns:xlink="http://www.w3.org/1999/xlink" viewBox="0,0,256,256" width="48px" height="48px" fill-rule="nonzero"><g fill="none" fill-rule="nonzero" stroke="none" stroke-width="1" stroke-linecap="butt" stroke-linejoin="miter" stroke-miterlimit="10" stroke-dasharray="" stroke-dashoffset="0" font-family="none" font-weight="none" font-size="none" text-anchor="none" style="mix-blend-mode: normal"><g transform="scale(5.33333,5.33333)"><circle cx="24" cy="24" r="20" fill="#e97d1a"></circle><path d="M29,32c-1.104,0 -2,-0.896 -2,-2v-13c0,-1.104 0.896,-2 2,-2c1.104,0 2,0.896 2,2v13c0,1.104 -0.896,2 -2,2z" fill="#ffffff"></path><path d="M23,32c-1.104,0 -2,-0.896 -2,-2v-6c0,-1.104 0.896,-2 2,-2c1.104,0 2,0.896 2,2v6c0,1.104 -0.896,2 -2,2z" fill="#ffffff"></path><path d="M17,32c-1.104,0 -2,-0.896 -2,-2v-1c0,-1.104 0.896,-2 2,-2c1.104,0 2,0.896 2,2v1c0,1.104 -0.896,2 -2,2z" fill="#ffffff"></path></g></g></svg>