<?xml version="1.0" encoding="UTF-8"?>
<svg xmlns="http://www.w3.org/2000/svg" xmlns:xlink="http://www.w3.org/1999/xlink" width="48px" height="48px" viewBox="0 0 48 48" version="1.1">
<defs>
<clipPath id="clip1">
  <path d="M 4 5 L 44 5 L 44 43 L 4 43 Z M 4 5 "/>
</clipPath>
<clipPath id="clip2">
  <path d="M 4.136719 5.171875 L 7.34375 5.171875 C 17.742188 5.171875 26.171875 13.601562 26.171875 24 C 26.171875 34.398438 17.742188 42.828125 7.34375 42.828125 L 4.136719 42.828125 L 4.136719 34.550781 L 7.34375 34.550781 C 13.171875 34.550781 17.898438 29.828125 17.898438 24 C 17.898438 18.171875 13.171875 13.449219 7.34375 13.449219 L 4.136719 13.449219 Z M 19.136719 5.171875 L 32.378906 5.171875 C 36.832031 5.171875 40.886719 7.75 42.777344 11.78125 C 44.667969 15.8125 44.054688 20.578125 41.207031 24 C 44.054688 27.421875 44.667969 32.1875 42.777344 36.21875 C 40.886719 40.25 36.832031 42.828125 32.378906 42.828125 L 19.136719 42.828125 C 22.398438 40.785156 25.070312 37.933594 26.894531 34.550781 L 32.378906 34.550781 C 34.152344 34.550781 35.585938 33.117188 35.585938 31.34375 C 35.585938 29.574219 34.152344 28.136719 32.378906 28.136719 L 29.171875 28.136719 C 29.691406 25.402344 29.691406 22.597656 29.171875 19.863281 L 32.378906 19.863281 C 34.152344 19.863281 35.585938 18.425781 35.585938 16.65625 C 35.585938 14.882812 34.152344 13.449219 32.378906 13.449219 L 26.894531 13.449219 C 25.070312 10.066406 22.398438 7.214844 19.136719 5.171875 Z M 19.136719 5.171875 "/>
</clipPath>
<linearGradient id="linear0" gradientUnits="userSpaceOnUse" x1="7" y1="64" x2="50" y2="107" gradientTransform="matrix(0.413793,0,0,0.413793,4.137931,5.172414)">
<stop offset="0" style="stop-color:rgb(97.647059%,62.745098%,23.529412%);stop-opacity:1;"/>
<stop offset="1" style="stop-color:rgb(96.862745%,59.215686%,30.588235%);stop-opacity:1;"/>
</linearGradient>
<linearGradient id="linear1" gradientUnits="userSpaceOnUse" x1="45" y1="-10" x2="108" y2="53" gradientTransform="matrix(0.413793,0,0,0.413793,4.137931,5.172414)">
<stop offset="0" style="stop-color:rgb(72.156863%,30.588235%,31.764706%);stop-opacity:1;"/>
<stop offset="1" style="stop-color:rgb(96.470588%,55.686275%,28.235294%);stop-opacity:1;"/>
</linearGradient>
<linearGradient id="linear2" gradientUnits="userSpaceOnUse" x1="2" y1="-2" x2="87" y2="84" gradientTransform="matrix(1,0,0,1,0,0.000000000000001776)">
<stop offset="0" style="stop-color:rgb(94.901961%,42.745098%,34.509804%);stop-opacity:1;"/>
<stop offset="1" style="stop-color:rgb(97.647059%,62.745098%,23.529412%);stop-opacity:1;"/>
</linearGradient>
</defs>
<g id="surface1">
<g clip-path="url(#clip1)" clip-rule="nonzero">
<g clip-path="url(#clip2)" clip-rule="nonzero">
<path style=" stroke:none;fill-rule:nonzero;fill:url(#linear0);" d="M -48.828125 -37.035156 L -48.828125 87.101562 L 75.308594 87.101562 Z M -48.828125 -37.035156 "/>
<path style=" stroke:none;fill-rule:nonzero;fill:url(#linear1);" d="M -25.65625 -37.035156 L 98.484375 -37.035156 L 98.484375 87.101562 Z M -25.65625 -37.035156 "/>
<path style="fill:none;stroke-width:40;stroke-linecap:butt;stroke-linejoin:miter;stroke:url(#linear2);stroke-miterlimit:4;" d="M -100.001953 -102.001628 L 200.004557 197.995443 " transform="matrix(0.413793,0,0,0.413793,4.137931,5.172414)"/>
</g>
</g>
</g>
</svg>
